<svg width="48" height="48" viewBox="0 0 48 48" fill="none" xmlns="http://www.w3.org/2000/svg">
<g clip-path="url(#clip0_31_1833)">
<path d="M24 0C10.7456 0 0 10.7456 0 24C0 30.6281 2.68688 36.6281 7.02938 40.9706L2.45812 45.5419C1.55062 46.4494 2.19375 48 3.47625 48H24C37.2544 48 48 37.2544 48 24C48 10.7456 37.2544 0 24 0Z" fill="#FF4500"/>
<path d="M37.605 28.7887C40.7002 28.7887 43.2094 26.2795 43.2094 23.1843C43.2094 20.0891 40.7002 17.58 37.605 17.58C34.5098 17.58 32.0006 20.0891 32.0006 23.1843C32.0006 26.2795 34.5098 28.7887 37.605 28.7887Z" fill="url(#paint0_radial_31_1833)"/>
<path d="M10.395 28.7887C13.4902 28.7887 15.9994 26.2795 15.9994 23.1843C15.9994 20.0891 13.4902 17.58 10.395 17.58C7.29981 17.58 4.79065 20.0891 4.79065 23.1843C4.79065 26.2795 7.29981 28.7887 10.395 28.7887Z" fill="url(#paint1_radial_31_1833)"/>
<path d="M24.0132 39.9994C32.8494 39.9994 40.0125 34.6268 40.0125 27.9994C40.0125 21.372 32.8494 15.9994 24.0132 15.9994C15.177 15.9994 8.01379 21.372 8.01379 27.9994C8.01379 34.6268 15.177 39.9994 24.0132 39.9994Z" fill="url(#paint2_radial_31_1833)"/>
<path d="M19.2825 26.8331C19.1888 28.8656 17.8388 29.6043 16.2694 29.6043C14.7 29.6043 13.5 28.5637 13.5938 26.5312C13.6875 24.4987 15.0375 23.1525 16.6069 23.1525C18.1763 23.1525 19.3763 24.8006 19.2825 26.8331Z" fill="#842123"/>
<path d="M34.4325 26.5294C34.5263 28.5619 33.3282 29.6025 31.7569 29.6025C30.1857 29.6025 28.8357 28.8656 28.7438 26.8313C28.65 24.7988 29.8482 23.1506 31.4194 23.1506C32.9907 23.1506 34.3407 24.495 34.4325 26.5294Z" fill="#842123"/>
<path d="M28.7438 27.0093C28.8319 28.9124 30.0937 29.6024 31.5637 29.6024C33.0337 29.6024 34.155 28.5693 34.0669 26.6662C33.9788 24.7631 32.7169 23.5181 31.2469 23.5181C29.7769 23.5181 28.6556 25.1062 28.7438 27.0093Z" fill="url(#paint3_radial_31_1833)"/>
<path d="M19.2844 27.0093C19.1963 28.9124 17.9344 29.6024 16.4644 29.6024C14.9944 29.6024 13.8732 28.5693 13.9613 26.6662C14.0494 24.7631 15.3113 23.5181 16.7813 23.5181C18.2513 23.5181 19.3725 25.1062 19.2844 27.0093Z" fill="url(#paint4_radial_31_1833)"/>
<path d="M24.0132 30.96C22.0294 30.96 20.1282 31.0556 18.3694 31.23C18.0694 31.26 17.8782 31.5656 17.9944 31.8393C18.9788 34.1475 21.3019 35.7693 24.0132 35.7693C26.7244 35.7693 29.0457 34.1475 30.0319 31.8393C30.1482 31.5656 29.9588 31.26 29.6569 31.23C27.8982 31.0556 25.9969 30.96 24.0132 30.96Z" fill="#BBCFDA"/>
<path d="M24.0132 31.4006C22.035 31.4006 20.1394 31.4981 18.3863 31.6763C18.0863 31.7063 17.8969 32.0175 18.0132 32.295C18.9957 34.6406 21.3113 36.2869 24.0113 36.2869C26.7113 36.2869 29.0288 34.6388 30.0113 32.295C30.1275 32.0175 29.9382 31.7063 29.6382 31.6763C27.885 31.4981 25.9894 31.4006 24.0113 31.4006H24.0132Z" fill="white"/>
<path d="M24.0131 31.1719C22.0668 31.1719 20.2012 31.2675 18.4743 31.4419C18.18 31.4719 17.9925 31.7775 18.1068 32.0513C19.0725 34.3594 21.3525 35.9812 24.0131 35.9812C26.6737 35.9812 28.9518 34.3594 29.9193 32.0513C30.0337 31.7775 29.8462 31.4719 29.5518 31.4419C27.8268 31.2675 25.9612 31.1719 24.0131 31.1719Z" fill="url(#paint5_radial_31_1833)"/>
<path d="M32.7769 14.3682C34.9702 14.3682 36.7482 12.5902 36.7482 10.3969C36.7482 8.20365 34.9702 6.42566 32.7769 6.42566C30.5837 6.42566 28.8057 8.20365 28.8057 10.3969C28.8057 12.5902 30.5837 14.3682 32.7769 14.3682Z" fill="url(#paint6_radial_31_1833)"/>
<path d="M23.9568 16.5056C23.4806 16.5056 23.0962 16.3069 23.0962 15.9994C23.0962 12.4406 25.9912 9.54749 29.5481 9.54749C30.0243 9.54749 30.4087 9.93374 30.4087 10.4081C30.4087 10.8825 30.0224 11.2687 29.5481 11.2687C26.9399 11.2687 24.8174 13.3912 24.8174 15.9994C24.8174 16.3069 24.4312 16.5056 23.9568 16.5056Z" fill="url(#paint7_radial_31_1833)"/>
<path d="M18.2381 27.9506C18.2381 28.6874 17.4544 29.0174 16.4888 29.0174C15.5231 29.0174 14.7394 28.6874 14.7394 27.9506C14.7394 27.2137 15.5231 26.6174 16.4888 26.6174C17.4544 26.6174 18.2381 27.2137 18.2381 27.9506Z" fill="#FF6101"/>
<path d="M33.2888 27.9506C33.2888 28.6874 32.505 29.0174 31.5394 29.0174C30.5738 29.0174 29.79 28.6874 29.79 27.9506C29.79 27.2137 30.5738 26.6174 31.5394 26.6174C32.505 26.6174 33.2888 27.2137 33.2888 27.9506Z" fill="#FF6101"/>
<path d="M17.6962 25.9519C18.04 25.9519 18.3187 25.648 18.3187 25.2731C18.3187 24.8982 18.04 24.5944 17.6962 24.5944C17.3524 24.5944 17.0737 24.8982 17.0737 25.2731C17.0737 25.648 17.3524 25.9519 17.6962 25.9519Z" fill="#FFC49C"/>
<path d="M32.4919 25.9519C32.8357 25.9519 33.1144 25.648 33.1144 25.2731C33.1144 24.8982 32.8357 24.5944 32.4919 24.5944C32.1481 24.5944 31.8694 24.8982 31.8694 25.2731C31.8694 25.648 32.1481 25.9519 32.4919 25.9519Z" fill="#FFC49C"/>
</g>
<defs>
<radialGradient id="paint0_radial_31_1833" cx="0" cy="0" r="1" gradientUnits="userSpaceOnUse" gradientTransform="translate(37.6897 20.167) scale(11.2315 9.79772)">
<stop stop-color="#FEFFFF"/>
<stop offset="0.4" stop-color="#FEFFFF"/>
<stop offset="0.51" stop-color="#F9FCFC"/>
<stop offset="0.62" stop-color="#EDF3F5"/>
<stop offset="0.7" stop-color="#DEE9EC"/>
<stop offset="0.72" stop-color="#D8E4E8"/>
<stop offset="0.76" stop-color="#CCD8DF"/>
<stop offset="0.8" stop-color="#C8D5DD"/>
<stop offset="0.83" stop-color="#CCD6DE"/>
<stop offset="0.85" stop-color="#D8DBE2"/>
<stop offset="0.88" stop-color="#EDE3E9"/>
<stop offset="0.9" stop-color="#FFEBEF"/>
</radialGradient>
<radialGradient id="paint1_radial_31_1833" cx="0" cy="0" r="1" gradientUnits="userSpaceOnUse" gradientTransform="translate(10.4797 20.167) scale(11.2315 9.79772)">
<stop stop-color="#FEFFFF"/>
<stop offset="0.4" stop-color="#FEFFFF"/>
<stop offset="0.51" stop-color="#F9FCFC"/>
<stop offset="0.62" stop-color="#EDF3F5"/>
<stop offset="0.7" stop-color="#DEE9EC"/>
<stop offset="0.72" stop-color="#D8E4E8"/>
<stop offset="0.76" stop-color="#CCD8DF"/>
<stop offset="0.8" stop-color="#C8D5DD"/>
<stop offset="0.83" stop-color="#CCD6DE"/>
<stop offset="0.85" stop-color="#D8DBE2"/>
<stop offset="0.88" stop-color="#EDE3E9"/>
<stop offset="0.9" stop-color="#FFEBEF"/>
</radialGradient>
<radialGradient id="paint2_radial_31_1833" cx="0" cy="0" r="1" gradientUnits="userSpaceOnUse" gradientTransform="translate(24.4402 18.5955) scale(33.8788 23.7872)">
<stop stop-color="#FEFFFF"/>
<stop offset="0.4" stop-color="#FEFFFF"/>
<stop offset="0.51" stop-color="#F9FCFC"/>
<stop offset="0.62" stop-color="#EDF3F5"/>
<stop offset="0.7" stop-color="#DEE9EC"/>
<stop offset="0.72" stop-color="#D8E4E8"/>
<stop offset="0.76" stop-color="#CCD8DF"/>
<stop offset="0.8" stop-color="#C8D5DD"/>
<stop offset="0.83" stop-color="#CCD6DE"/>
<stop offset="0.85" stop-color="#D8DBE2"/>
<stop offset="0.88" stop-color="#EDE3E9"/>
<stop offset="0.9" stop-color="#FFEBEF"/>
</radialGradient>
<radialGradient id="paint3_radial_31_1833" cx="0" cy="0" r="1" gradientUnits="userSpaceOnUse" gradientTransform="translate(30.99 28.3071) rotate(180) scale(2.83057 4.15553)">
<stop stop-color="#FF6600"/>
<stop offset="0.5" stop-color="#FF4500"/>
<stop offset="0.7" stop-color="#FC4301"/>
<stop offset="0.82" stop-color="#F43F07"/>
<stop offset="0.92" stop-color="#E53812"/>
<stop offset="1" stop-color="#D4301F"/>
</radialGradient>
<radialGradient id="paint4_radial_31_1833" cx="0" cy="0" r="1" gradientUnits="userSpaceOnUse" gradientTransform="translate(16.9107 28.3071) scale(2.83057 4.15553)">
<stop stop-color="#FF6600"/>
<stop offset="0.5" stop-color="#FF4500"/>
<stop offset="0.7" stop-color="#FC4301"/>
<stop offset="0.82" stop-color="#F43F07"/>
<stop offset="0.92" stop-color="#E53812"/>
<stop offset="1" stop-color="#D4301F"/>
</radialGradient>
<radialGradient id="paint5_radial_31_1833" cx="0" cy="0" r="1" gradientUnits="userSpaceOnUse" gradientTransform="translate(24.0691 36.5452) scale(9.98104 6.58324)">
<stop stop-color="#172E35"/>
<stop offset="0.29" stop-color="#0E1C21"/>
<stop offset="0.73" stop-color="#030708"/>
<stop offset="1"/>
</radialGradient>
<radialGradient id="paint6_radial_31_1833" cx="0" cy="0" r="1" gradientUnits="userSpaceOnUse" gradientTransform="translate(32.8711 6.39493) scale(8.76139 8.76139)">
<stop stop-color="#FEFFFF"/>
<stop offset="0.4" stop-color="#FEFFFF"/>
<stop offset="0.51" stop-color="#F9FCFC"/>
<stop offset="0.62" stop-color="#EDF3F5"/>
<stop offset="0.7" stop-color="#DEE9EC"/>
<stop offset="0.72" stop-color="#D8E4E8"/>
<stop offset="0.76" stop-color="#CCD8DF"/>
<stop offset="0.8" stop-color="#C8D5DD"/>
<stop offset="0.83" stop-color="#CCD6DE"/>
<stop offset="0.85" stop-color="#D8DBE2"/>
<stop offset="0.88" stop-color="#EDE3E9"/>
<stop offset="0.9" stop-color="#FFEBEF"/>
</radialGradient>
<radialGradient id="paint7_radial_31_1833" cx="0" cy="0" r="1" gradientUnits="userSpaceOnUse" gradientTransform="translate(29.22 15.9461) scale(7.1813 7.18131)">
<stop offset="0.48" stop-color="#7A9299"/>
<stop offset="0.67" stop-color="#172E35"/>
<stop offset="0.75"/>
<stop offset="0.82" stop-color="#172E35"/>
</radialGradient>
<clipPath id="clip0_31_1833">
<rect width="48" height="48" fill="white"/>
</clipPath>
</defs>
</svg>
