<svg width="48" height="48" viewBox="0 0 48 48" fill="none" xmlns="http://www.w3.org/2000/svg">
<path d="M24 0C10.482 0 0 9.906 0 23.28C0 30.276 2.868 36.324 7.536 40.5C7.926 40.848 8.166 41.34 8.178 41.868L8.31 46.14C8.31961 46.4543 8.40628 46.7615 8.5624 47.0345C8.71852 47.3075 8.93929 47.5379 9.20533 47.7056C9.47137 47.8733 9.77453 47.9731 10.0882 47.9961C10.4018 48.0192 10.7163 47.9649 11.004 47.838L15.768 45.738C16.17 45.558 16.626 45.528 17.052 45.642C19.242 46.242 21.57 46.566 24 46.566C37.518 46.566 48 36.66 48 23.286C48 9.912 37.518 0 24 0Z" fill="url(#paint0_radial_34_1869)"/>
<path d="M9.58802 30.0899L16.638 18.9059C16.9032 18.4849 17.2529 18.1234 17.6648 17.8442C18.0768 17.5651 18.5422 17.3744 19.0316 17.2842C19.5209 17.194 20.0237 17.2062 20.5081 17.3201C20.9926 17.434 21.4481 17.6471 21.846 17.9459L27.456 22.1519C27.7065 22.3394 28.0112 22.4403 28.324 22.4392C28.6369 22.4381 28.9409 22.3352 29.19 22.1459L36.762 16.3979C37.77 15.6299 39.09 16.8419 38.418 17.9159L31.362 29.0939C31.0968 29.515 30.7472 29.8765 30.3352 30.1557C29.9232 30.4348 29.4579 30.6255 28.9685 30.7157C28.4791 30.8059 27.9763 30.7937 27.4919 30.6798C27.0075 30.5659 26.5519 30.3528 26.154 30.0539L20.544 25.8479C20.2936 25.6604 19.9889 25.5596 19.676 25.5607C19.3632 25.5618 19.0592 25.6647 18.81 25.8539L11.238 31.6019C10.23 32.3699 8.91002 31.1639 9.58802 30.0899Z" fill="white"/>
<defs>
<radialGradient id="paint0_radial_34_1869" cx="0" cy="0" r="1" gradientUnits="userSpaceOnUse" gradientTransform="translate(8.04 48) scale(52.8 52.8)">
<stop stop-color="#0099FF"/>
<stop offset="0.6" stop-color="#A033FF"/>
<stop offset="0.9" stop-color="#FF5280"/>
<stop offset="1" stop-color="#FF7061"/>
</radialGradient>
</defs>
</svg>
